<?xml version="1.0" standalone="no"?>
<!DOCTYPE svg PUBLIC "-//W3C//DTD SVG 20010904//EN"
 "http://www.w3.org/TR/2001/REC-SVG-20010904/DTD/svg10.dtd">
<svg version="1.0" xmlns="http://www.w3.org/2000/svg"
 width="30.000000pt" height="30.000000pt" viewBox="0 0 30.000000 30.000000"
 preserveAspectRatio="xMidYMid meet">

<g transform="translate(0.000000,30.000000) scale(0.100000,-0.100000)"
fill="#000000" stroke="none">
<path d="M40 150 l0 -110 110 0 110 0 0 110 0 110 -110 0 -110 0 0 -110z m63
73 c9 -9 -13 -34 -24 -27 -14 8 -11 34 4 34 8 0 17 -3 20 -7z m-3 -98 c0 -42
-3 -55 -15 -55 -12 0 -15 13 -15 55 0 42 3 55 15 55 12 0 15 -13 15 -55z m118
43 c18 -15 16 -98 -3 -98 -9 0 -15 9 -15 24 0 35 -10 56 -26 56 -10 0 -14 -12
-14 -40 0 -29 -4 -40 -15 -40 -11 0 -15 13 -15 54 l0 54 38 0 c20 0 43 -5 50
-10z"/>
</g>
</svg>
